# xmcd
#
# Track frame offsets:
#	150
#	10697
#	22124
#	34708
#	45627
#	58668
#	70921
#	82559
#	97193
#	114969
#	131824
#	148037
#	169708
#	186944
#	205094
#	221636
#	242504
#	258768
#	275618
#	298338
#	317346
#	331794
#
# Disc length: 4698 seconds
#
# Revision: 0
# Processed by: cddbd v1.5.2PL0 Copyright (c) Steve Scherf et al.
# Submitted via: dBpowerAMP V4.0
#
DISCID=3a125816
DTITLE=Aaron Neville - Gold [CD1]
DYEAR=2008
DGENRE=Country
TTITLE0=Over You
TTITLE1=Show Me the Way
TTITLE2=Let's Live
TTITLE3=I'm Waiting at the Station
TTITLE4=How Could I Help But Love You
TTITLE5=Tell It Like It Is
TTITLE6=Why Worry
TTITLE7=Jailhouse
TTITLE8=Mojo Hannah
TTITLE9=Hercules
TTITLE10=The Greatest Love
TTITLE11=Arianne
TTITLE12=The Ten Commandments of Love
TTITLE13=For Your Precious Love
TTITLE14=Pledging My Love 
TTITLE15=Stardust (With Rob Wasserman)
TTITLE16=Don't Know Much (With Linda Ronstadt)
TTITLE17=A Change Is Gonna Come
TTITLE18=Bird On A Wire
TTITLE19=Feerless
TTITLE20=In Your Eyes
TTITLE21=For The Good Times
EXTD=
EXTT0=
EXTT1=
EXTT2=
EXTT3=
EXTT4=
EXTT5=
EXTT6=
EXTT7=
EXTT8=
EXTT9=
EXTT10=
EXTT11=
EXTT12=
EXTT13=
EXTT14=
EXTT15=
EXTT16=
EXTT17=
EXTT18=
EXTT19=
EXTT20=
EXTT21=
PLAYORDER=
